<svg xmlns="http://www.w3.org/2000/svg" version="1.1" xmlns:xlink="http://www.w3.org/1999/xlink" xmlns:svgjs="http://svgjs.dev/svgjs" width="1000" height="1000" viewBox="0 0 1000 1000"><rect width="1000" height="1000" fill="#000000"></rect><g transform="matrix(0.7,0,0,0.7,150,150)"><svg viewBox="0 0 280 280" data-background-color="#ffffff" preserveAspectRatio="xMidYMid meet" height="1000" width="1000" xmlns="http://www.w3.org/2000/svg" xmlns:xlink="http://www.w3.org/1999/xlink"><g id="tight-bounds" transform="matrix(1,0,0,1,0,0)"><svg viewBox="0 0 280 280" height="280" width="280"><g><svg viewBox="0 0 280 280" height="280" width="280"><g><svg viewBox="0 0 280 280" height="280" width="280"><g id="textblocktransform"><svg viewBox="0 0 280 280" height="280" width="280" id="textblock"><g><svg viewBox="0 0 280 280" height="280" width="280"><g transform="matrix(1,0,0,1,57.50420886156945,57.50420886156945)"><svg viewBox="0 0 164.9915822768611 164.9915822768611" height="164.9915822768611" width="164.9915822768611"><g><circle r="82" cx="82.49579113843055" cy="82.49579113843055" fill="#ffffff" data-fill-palette-color="accent"></circle><svg xmlns="http://www.w3.org/2000/svg" xmlns:xlink="http://www.w3.org/1999/xlink" version="1.0" x="24.748737341529164" y="24.74873734152917" viewBox="4.667731951646829 4.685959745359883 90.30503348557724 90.30465734357294" enable-background="new 0 0 100 100" xml:space="preserve" height="115.49410759380275" width="115.49410759380275" class="icon-eg-0" data-fill-palette-color="quaternary" id="eg-0"><path d="M17.504 35.743c-1.334 8.611 0.522 17.134 5.093 23.382 3.514 4.801 8.413 7.905 13.796 8.739 5.677 0.88 11.253-0.429 15.703-3.685 1.248-0.912 2.36-1.946 3.326-3.076-2.222 0.978-4.814 1.267-7.626 0.831-11.717-1.816-19.673-13.464-17.735-25.964 0.934-6.03 4.384-11.497 9.713-15.397 6.768-4.952 15.953-6.97 25.201-5.537 7.474 1.158 17.67 5.964 25.56 15.213 0 0-22.835-39.421-56.115-20.356C23.689 16.04 18.653 28.323 17.504 35.743z" fill="#000000" data-fill-palette-color="quaternary"></path><path d="M82.544 65.256c1.659-8.555 0.125-17.141-4.207-23.557-3.331-4.931-8.109-8.217-13.457-9.253-5.639-1.094-11.261 0.004-15.83 3.091-1.282 0.863-2.431 1.854-3.44 2.947 2.257-0.894 4.859-1.084 7.652-0.543 11.64 2.257 19.151 14.196 16.744 26.616-1.161 5.989-4.815 11.324-10.288 15.019-6.949 4.692-16.205 6.364-25.393 4.582C26.902 82.719 16.894 77.532 9.358 67.992c0 0 21.331 40.255 55.307 22.457C75.621 84.712 81.115 72.628 82.544 65.256z" fill="#000000" data-fill-palette-color="quaternary"></path><path d="M35.726 82.88c8.611 1.334 17.133-0.522 23.381-5.094 4.801-3.514 7.905-8.413 8.74-13.796 0.879-5.676-0.429-11.253-3.686-15.702-0.912-1.248-1.946-2.36-3.076-3.327 0.979 2.222 1.267 4.815 0.831 7.626-1.816 11.717-13.463 19.673-25.965 17.736-6.029-0.934-11.497-4.385-15.395-9.713-4.952-6.768-6.971-15.954-5.538-25.202 1.158-7.474 5.964-17.67 15.213-25.559 0 0-39.421 22.835-20.356 56.115C16.022 76.695 28.305 81.73 35.726 82.88z" fill="#000000" data-fill-palette-color="quaternary"></path><path d="M90.432 35.718c-5.738-10.955-17.822-16.45-25.194-17.879-8.554-1.659-17.141-0.125-23.557 4.208-4.931 3.331-8.217 8.108-9.254 13.456-1.094 5.64 0.004 11.261 3.092 15.83 0.863 1.282 1.854 2.431 2.946 3.441-0.894-2.257-1.084-4.859-0.542-7.652 2.257-11.64 14.196-19.151 26.615-16.744 5.99 1.161 11.324 4.816 15.019 10.289 4.693 6.949 6.363 16.204 4.583 25.392-1.44 7.423-6.626 17.431-16.167 24.966C67.973 91.025 108.228 69.694 90.432 35.718z" fill="#000000" data-fill-palette-color="quaternary"></path></svg></g></svg></g><path d="M10.431 180.062l4.752 1.02c-0.146 1.022-0.244 2.037-0.295 3.045-0.045 1.005-0.021 2.019 0.071 3.043 0.101 1.028 0.279 2.077 0.534 3.147 0.254 1.07 0.603 2.179 1.046 3.326v0c0.535 1.387 1.083 2.534 1.643 3.443 0.557 0.902 1.115 1.599 1.672 2.091 0.557 0.491 1.109 0.79 1.654 0.896 0.554 0.11 1.092 0.065 1.613-0.136v0c0.834-0.322 1.362-0.926 1.583-1.811 0.214-0.883 0.04-2.052-0.522-3.508v0c-0.247-0.64-0.548-1.299-0.903-1.976-0.355-0.678-0.722-1.358-1.101-2.04-0.379-0.683-0.746-1.363-1.102-2.041-0.353-0.671-0.648-1.314-0.885-1.929v0c-0.4-1.035-0.651-2.077-0.753-3.127-0.102-1.049-0.028-2.044 0.222-2.983 0.25-0.94 0.69-1.78 1.319-2.521 0.63-0.741 1.475-1.315 2.535-1.725v0c0.627-0.242 1.284-0.399 1.971-0.469 0.689-0.064 1.388-0.017 2.099 0.142 0.712 0.165 1.428 0.451 2.148 0.858 0.716 0.416 1.416 0.978 2.1 1.687 0.681 0.718 1.337 1.596 1.969 2.635 0.632 1.039 1.223 2.271 1.773 3.696v0c0.4 1.035 0.744 2.095 1.033 3.18 0.289 1.085 0.521 2.163 0.697 3.235 0.173 1.065 0.292 2.111 0.357 3.139 0.065 1.027 0.073 2.001 0.025 2.921v0l-4.576-0.591c0.039-0.758 0.034-1.556-0.016-2.395-0.052-0.845-0.145-1.71-0.277-2.596-0.139-0.883-0.326-1.778-0.56-2.682-0.23-0.913-0.519-1.822-0.868-2.726v0c-0.499-1.293-1.002-2.317-1.51-3.072-0.51-0.762-1.004-1.332-1.482-1.709-0.478-0.378-0.933-0.595-1.365-0.652-0.439-0.054-0.834-0.013-1.186 0.122v0c-0.69 0.266-1.135 0.795-1.334 1.586-0.193 0.788-0.045 1.816 0.444 3.084v0c0.199 0.514 0.46 1.088 0.783 1.72 0.332 0.636 0.684 1.304 1.055 2.004 0.371 0.7 0.741 1.415 1.109 2.145 0.371 0.736 0.694 1.462 0.97 2.178v0c0.526 1.362 0.836 2.622 0.931 3.782 0.103 1.164 0.009 2.21-0.282 3.137-0.291 0.927-0.768 1.727-1.43 2.401-0.663 0.674-1.49 1.202-2.481 1.585v0c-1.33 0.513-2.632 0.663-3.904 0.448-1.279-0.213-2.492-0.75-3.64-1.612-1.154-0.86-2.224-2.018-3.212-3.475-0.984-1.466-1.855-3.181-2.613-5.145v0c-0.501-1.299-0.913-2.6-1.236-3.902-0.314-1.299-0.54-2.574-0.677-3.827-0.137-1.252-0.197-2.472-0.181-3.661 0.023-1.191 0.117-2.32 0.283-3.385zM29.883 207.411l11.671-8.114 2.862 4.117-11.182 7.774c-0.917 0.637-1.643 1.331-2.179 2.08-0.54 0.744-0.885 1.537-1.037 2.38-0.142 0.844-0.085 1.722 0.172 2.633 0.251 0.915 0.716 1.861 1.396 2.838v0c0.676 0.972 1.401 1.738 2.174 2.297 0.768 0.563 1.571 0.923 2.409 1.078 0.843 0.151 1.706 0.104 2.591-0.143 0.889-0.241 1.792-0.68 2.708-1.318v0l11.183-7.774 2.862 4.117-11.671 8.114c-1.336 0.929-2.706 1.545-4.109 1.849-1.404 0.313-2.793 0.312-4.167-0.003-1.378-0.32-2.711-0.954-4-1.9-1.28-0.945-2.474-2.216-3.583-3.812v0c-1.106-1.59-1.881-3.153-2.325-4.687-0.439-1.538-0.566-3.006-0.383-4.403 0.184-1.397 0.665-2.702 1.444-3.915 0.773-1.209 1.828-2.278 3.164-3.208zM41.349 239.241l16.228-18.643 3.774 3.285 0.858 12.705 12.694-0.908 3.782 3.292-16.228 18.643-3.781-3.292 11.67-13.408-12.455 0.634-1.097-12.431-11.671 13.408zM71 262.025l10.546-22.354 4.525 2.135 4.281 11.992 11.969-4.326 4.534 2.139-10.545 22.354-4.535-2.139 7.584-16.077-11.813 3.998-4.436-11.664-7.585 16.077zM102.614 275.362l15.421-22.532 5.248 0.854 7.828 26.316-5.197-0.846-1.284-4.42-14.249-2.319-2.56 3.794zM112.936 268.65l10.405 1.694-3.474-11.942zM136.864 279.9l-1.246-24.685 12.554-0.634c1.894-0.096 3.546 0.02 4.957 0.346 1.41 0.326 2.591 0.839 3.542 1.538 0.958 0.699 1.686 1.575 2.183 2.627 0.504 1.052 0.791 2.256 0.859 3.614v0c0.046 0.92-0.02 1.799-0.2 2.636-0.18 0.837-0.481 1.614-0.902 2.328-0.421 0.722-0.968 1.369-1.64 1.942-0.664 0.579-1.458 1.07-2.38 1.473v0l5.769 7.629-6.126 0.309-4.999-6.778-0.141 0.007-7.578 0.362 0.356 7.033zM141.298 268.292l7.678-0.388c0.947-0.048 1.771-0.201 2.472-0.458 0.694-0.257 1.273-0.596 1.736-1.017 0.457-0.427 0.788-0.932 0.994-1.515 0.213-0.59 0.301-1.237 0.266-1.942v0c-0.07-1.377-0.6-2.418-1.592-3.122-0.985-0.704-2.428-1.009-4.329-0.913v0l-7.678 0.388zM175.677 274.291l-1.777-5.86-15.735-14.657 5.435-1.648 11.361 11.25 3.101-15.636 5.435-1.648-4.807 20.855 1.786 5.889zM195.642 267.29l-11.573-21.84 18.596-9.853 2.059 3.887-14.165 7.505 2.31 4.359 12.542-6.646 1.932 3.646-12.542 6.646 3.221 6.08 14.459-7.662 2.05 3.869zM218.118 254.321l-7.8-26.167 3.967-3.539 25.376 10.482-3.929 3.506-4.243-1.784-10.771 9.611 1.337 4.378zM219.401 242.075l7.866-7.019-11.465-4.818zM239.691 229.733l-1.799-4.515c0.93-0.448 1.828-0.932 2.693-1.45 0.859-0.523 1.689-1.108 2.487-1.755 0.797-0.657 1.569-1.388 2.317-2.195 0.747-0.807 1.474-1.714 2.18-2.722v0c0.854-1.217 1.502-2.311 1.945-3.282 0.439-0.965 0.707-1.816 0.804-2.553 0.098-0.737 0.039-1.361-0.176-1.874-0.217-0.522-0.554-0.943-1.012-1.264v0c-0.732-0.514-1.528-0.616-2.385-0.305-0.853 0.314-1.727 1.109-2.623 2.387v0c-0.394 0.562-0.773 1.179-1.138 1.851-0.365 0.672-0.725 1.356-1.082 2.051-0.356 0.695-0.716 1.379-1.081 2.051-0.361 0.667-0.731 1.27-1.109 1.81v0c-0.637 0.909-1.363 1.697-2.178 2.366-0.814 0.669-1.682 1.162-2.601 1.478-0.92 0.316-1.863 0.419-2.829 0.308-0.966-0.111-1.914-0.492-2.844-1.145v0c-0.551-0.386-1.046-0.845-1.487-1.376-0.437-0.537-0.787-1.144-1.051-1.821-0.26-0.683-0.421-1.437-0.484-2.262-0.053-0.826 0.024-1.721 0.231-2.684 0.217-0.965 0.581-2 1.092-3.103 0.511-1.104 1.205-2.28 2.082-3.531v0c0.637-0.909 1.326-1.785 2.067-2.629 0.74-0.844 1.506-1.638 2.298-2.381 0.788-0.737 1.591-1.419 2.408-2.045 0.817-0.626 1.621-1.175 2.412-1.647v0l2.057 4.129c-0.651 0.389-1.311 0.838-1.98 1.347-0.673 0.514-1.34 1.073-2.001 1.677-0.656 0.608-1.295 1.261-1.916 1.958-0.63 0.7-1.224 1.446-1.78 2.239v0c-0.796 1.134-1.366 2.123-1.71 2.966-0.348 0.848-0.547 1.576-0.595 2.183-0.048 0.607 0.025 1.106 0.219 1.497 0.2 0.395 0.454 0.7 0.762 0.916v0c0.606 0.425 1.292 0.5 2.06 0.225 0.762-0.279 1.533-0.974 2.314-2.086v0c0.317-0.452 0.648-0.988 0.992-1.608 0.343-0.63 0.702-1.294 1.077-1.993 0.375-0.698 0.763-1.404 1.165-2.116 0.405-0.718 0.828-1.391 1.268-2.019v0c0.838-1.195 1.713-2.155 2.623-2.879 0.909-0.734 1.83-1.239 2.762-1.513 0.932-0.275 1.862-0.324 2.791-0.15 0.929 0.175 1.828 0.568 2.698 1.178v0c1.167 0.819 2.016 1.817 2.546 2.994 0.536 1.181 0.765 2.488 0.688 3.92-0.071 1.437-0.437 2.971-1.097 4.603-0.669 1.634-1.608 3.312-2.817 5.036v0c-0.799 1.14-1.65 2.206-2.553 3.2-0.904 0.984-1.838 1.882-2.801 2.693-0.963 0.811-1.943 1.541-2.94 2.189-1.002 0.644-1.992 1.195-2.969 1.651zM261.693 201.414l-22.91-9.274 7.896-19.507 4.078 1.651-6.016 14.859 4.573 1.851 5.326-13.157 3.825 1.548-5.327 13.157 6.378 2.582 6.14-15.167 4.059 1.642z" fill="#ffffff" data-fill-palette-color="primary"></path><path d="M21.717 110.228L18.883 106.28C19.678 105.62 20.433 104.935 21.148 104.223 21.856 103.509 22.52 102.742 23.14 101.921 23.755 101.092 24.328 100.195 24.859 99.232 25.389 98.269 25.876 97.213 26.319 96.065V96.065C26.854 94.679 27.22 93.461 27.416 92.412 27.609 91.369 27.665 90.478 27.582 89.74 27.5 89.002 27.292 88.41 26.959 87.964 26.623 87.51 26.194 87.182 25.673 86.981V86.981C24.839 86.659 24.043 86.752 23.284 87.259 22.532 87.769 21.875 88.752 21.313 90.207V90.207C21.066 90.847 20.847 91.538 20.655 92.278 20.463 93.019 20.277 93.769 20.099 94.529 19.921 95.29 19.736 96.04 19.544 96.78 19.354 97.515 19.141 98.189 18.903 98.804V98.804C18.504 99.839 17.989 100.78 17.36 101.626 16.731 102.471 16.008 103.158 15.191 103.686 14.374 104.215 13.484 104.541 12.52 104.667 11.556 104.792 10.544 104.65 9.484 104.241V104.241C8.856 103.998 8.265 103.673 7.709 103.264 7.156 102.848 6.669 102.343 6.25 101.749 5.833 101.148 5.495 100.455 5.235 99.67 4.985 98.881 4.844 97.994 4.814 97.009 4.792 96.02 4.896 94.929 5.126 93.734 5.356 92.54 5.747 91.231 6.296 89.807V89.807C6.696 88.771 7.153 87.755 7.668 86.757 8.183 85.759 8.736 84.804 9.325 83.893 9.913 82.988 10.527 82.133 11.17 81.328 11.812 80.523 12.46 79.797 13.114 79.148V79.148L16.106 82.66C15.568 83.195 15.035 83.79 14.509 84.445 13.979 85.105 13.467 85.809 12.97 86.554 12.479 87.302 12.017 88.089 11.582 88.916 11.139 89.747 10.743 90.615 10.394 91.518V91.518C9.895 92.811 9.58 93.907 9.448 94.808 9.314 95.715 9.297 96.469 9.397 97.07 9.497 97.671 9.688 98.138 9.97 98.47 10.259 98.805 10.579 99.04 10.93 99.176V99.176C11.621 99.442 12.305 99.35 12.984 98.898 13.657 98.444 14.238 97.583 14.727 96.316V96.316C14.926 95.802 15.118 95.202 15.303 94.516 15.484 93.822 15.673 93.091 15.869 92.323 16.064 91.555 16.271 90.777 16.488 89.989 16.709 89.194 16.957 88.439 17.233 87.724V87.724C17.759 86.362 18.376 85.22 19.086 84.297 19.791 83.366 20.563 82.654 21.402 82.163 22.24 81.672 23.131 81.4 24.075 81.346 25.018 81.292 25.986 81.457 26.977 81.839V81.839C28.307 82.353 29.371 83.117 30.169 84.131 30.973 85.148 31.511 86.361 31.781 87.771 32.058 89.182 32.073 90.76 31.825 92.503 31.569 94.249 31.062 96.105 30.304 98.068V98.068C29.803 99.367 29.234 100.607 28.597 101.789 27.957 102.962 27.267 104.059 26.528 105.078 25.788 106.097 25.013 107.042 24.201 107.911 23.384 108.777 22.556 109.55 21.717 110.228ZM27.971 77.193L16.3 69.079 19.162 64.962 30.344 72.736C31.261 73.373 32.164 73.813 33.053 74.054 33.938 74.301 34.801 74.348 35.644 74.197 36.485 74.036 37.288 73.677 38.052 73.119 38.822 72.565 39.547 71.799 40.227 70.822V70.822C40.902 69.85 41.368 68.904 41.623 67.983 41.883 67.067 41.94 66.189 41.794 65.35 41.643 64.508 41.297 63.715 40.758 62.971 40.222 62.222 39.496 61.528 38.579 60.891V60.891L27.397 53.117 30.259 49 41.93 57.114C43.266 58.043 44.321 59.112 45.094 60.321 45.876 61.529 46.359 62.831 46.543 64.228 46.723 65.631 46.593 67.102 46.155 68.64 45.714 70.168 44.939 71.731 43.83 73.327V73.327C42.724 74.917 41.53 76.188 40.246 77.138 38.957 78.085 37.626 78.716 36.252 79.031 34.878 79.345 33.487 79.349 32.079 79.041 30.677 78.738 29.307 78.122 27.971 77.193ZM53.61 60.779L37.383 42.136 41.157 38.85 53.858 39.752 54.709 27.054 58.491 23.762 74.719 42.405 70.937 45.697 59.266 32.289 58.177 44.713 45.714 44.086 57.385 57.493ZM78.968 40.799L68.422 18.445 72.948 16.31 84.925 20.632 89.198 8.644 93.732 6.505 104.278 28.858 99.743 30.998 92.159 14.921 87.732 26.58 75.909 22.587 83.493 38.664ZM105.614 29.004L113.094 2.745 118.341 1.891 134.112 24.366 128.914 25.212 126.294 21.427 112.046 23.746 110.821 28.157ZM113.275 19.366L123.68 17.672 116.599 7.449ZM135.922 24.685L137.169 0 149.723 0.634C151.617 0.729 153.249 1.011 154.62 1.477 155.99 1.944 157.113 2.573 157.989 3.364 158.872 4.156 159.507 5.101 159.896 6.198 160.292 7.295 160.456 8.523 160.387 9.879V9.879C160.341 10.8 160.186 11.667 159.923 12.482 159.659 13.297 159.282 14.039 158.79 14.708 158.298 15.383 157.689 15.972 156.963 16.474 156.244 16.984 155.405 17.392 154.447 17.701V17.701L159.418 25.871 153.292 25.562 149.002 18.315 148.861 18.308 141.285 17.905 140.93 24.938ZM141.503 13.583L149.181 13.97C150.128 14.018 150.963 13.949 151.686 13.763 152.403 13.577 153.013 13.298 153.516 12.927 154.013 12.548 154.394 12.079 154.658 11.52 154.929 10.954 155.082 10.319 155.118 9.613V9.613C155.187 8.236 154.764 7.148 153.848 6.347 152.939 5.547 151.534 5.099 149.633 5.003V5.003L141.956 4.615ZM170.258 29.513L172.035 23.653 167.091 2.725 172.526 4.373 175.724 20.039 186.988 8.759 192.423 10.407 176.842 25.079 175.056 30.968ZM186.898 35.145L198.47 13.305 217.065 23.158 215.006 27.045 200.841 19.539 198.532 23.899 211.074 30.544 209.142 34.19 196.6 27.544 193.378 33.624 207.837 41.285 205.787 45.154ZM205.684 45.547L230.797 34.829 234.763 38.369 227.227 64.77 223.298 61.264 224.59 56.846 213.818 47.235 209.621 49.06ZM217.996 45.432L225.862 52.451 229.348 40.514ZM229.786 63.147L234.644 62.993C234.749 64.02 234.898 65.029 235.091 66.019 235.29 67.005 235.557 67.984 235.894 68.956 236.24 69.929 236.665 70.904 237.169 71.881 237.674 72.858 238.279 73.85 238.986 74.858V74.858C239.84 76.075 240.648 77.056 241.41 77.803 242.168 78.545 242.877 79.087 243.536 79.43 244.195 79.772 244.803 79.929 245.358 79.901 245.923 79.875 246.434 79.701 246.891 79.381V79.381C247.623 78.867 247.99 78.154 247.99 77.242 247.986 76.333 247.535 75.24 246.639 73.963V73.963C246.245 73.401 245.794 72.834 245.286 72.262 244.778 71.69 244.258 71.119 243.726 70.547 243.194 69.976 242.674 69.404 242.166 68.832 241.662 68.266 241.22 67.713 240.842 67.173V67.173C240.205 66.265 239.71 65.313 239.358 64.32 239.006 63.326 238.838 62.343 238.854 61.371 238.871 60.398 239.095 59.477 239.528 58.606 239.961 57.736 240.642 56.974 241.573 56.322V56.322C242.123 55.935 242.723 55.625 243.373 55.392 244.026 55.164 244.716 55.041 245.444 55.024 246.175 55.012 246.939 55.117 247.735 55.339 248.53 55.57 249.345 55.947 250.18 56.47 251.013 57.003 251.862 57.698 252.726 58.554 253.589 59.411 254.46 60.464 255.336 61.714V61.714C255.973 62.622 256.563 63.568 257.105 64.552 257.647 65.535 258.132 66.526 258.561 67.523 258.985 68.515 259.353 69.502 259.664 70.483 259.974 71.465 260.217 72.408 260.391 73.312V73.312L255.808 73.841C255.664 73.096 255.466 72.323 255.216 71.521 254.962 70.713 254.663 69.896 254.321 69.068 253.973 68.244 253.577 67.421 253.132 66.599 252.688 65.768 252.189 64.956 251.633 64.164V64.164C250.837 63.029 250.102 62.157 249.427 61.546 248.748 60.929 248.131 60.495 247.577 60.243 247.022 59.992 246.528 59.89 246.095 59.94 245.656 59.993 245.282 60.128 244.973 60.344V60.344C244.368 60.769 244.063 61.389 244.06 62.205 244.063 63.016 244.454 63.978 245.234 65.09V65.09C245.551 65.542 245.942 66.035 246.408 66.571 246.884 67.108 247.386 67.672 247.915 68.262 248.444 68.852 248.975 69.457 249.508 70.077 250.046 70.703 250.534 71.329 250.975 71.957V71.957C251.813 73.152 252.418 74.301 252.789 75.404 253.169 76.509 253.33 77.546 253.271 78.516 253.212 79.486 252.942 80.378 252.461 81.191 251.98 82.005 251.305 82.717 250.435 83.327V83.327C249.268 84.146 248.041 84.604 246.754 84.702 245.461 84.803 244.154 84.574 242.833 84.014 241.506 83.457 240.188 82.591 238.878 81.415 237.57 80.229 236.312 78.775 235.103 77.051V77.051C234.304 75.912 233.59 74.748 232.963 73.562 232.346 72.377 231.819 71.193 231.385 70.011 230.95 68.829 230.598 67.659 230.328 66.501 230.063 65.339 229.883 64.221 229.786 63.147ZM244.382 91.527L267.292 82.252 275.189 101.758 271.112 103.409 265.097 88.55 260.524 90.401 265.851 103.558 262.026 105.106 256.7 91.949 250.322 94.531 256.462 109.699 252.404 111.342Z" fill="#ffffff" data-fill-palette-color="primary"></path><path d="M8.327 142.967c0-1.584 1.284-2.869 2.869-2.869 1.584 0 2.869 1.284 2.869 2.869 0 1.584-1.284 2.869-2.869 2.868-1.584 0-2.869-1.284-2.869-2.868zM262.558 142.967c0-1.584 1.284-2.869 2.869-2.869 1.584 0 2.869 1.284 2.869 2.869 0 1.584-1.284 2.869-2.869 2.868-1.584 0-2.869-1.284-2.869-2.868z" fill="#ffffff" data-fill-palette-color="primary"></path></svg></g></svg></g></svg></g></svg></g><defs></defs></svg><rect width="280" height="280" fill="none" stroke="none" visibility="hidden"></rect></g></svg></g></svg>